<svg xmlns="http://www.w3.org/2000/svg" version="1.1" xmlns:xlink="http://www.w3.org/1999/xlink" xmlns:svgjs="http://svgjs.com/svgjs" width="512" height="512" x="0" y="0" viewBox="0 0 512 512" style="enable-background:new 0 0 512 512" xml:space="preserve" class=""><g><g><g fill="#ff2323"><path d="m0 215.815v40.185l15 17.739 15-17.739v-40.185z" fill="#ff2323" data-original="#ff2323"></path><path d="m60.25 155.815v100.185l15 17.739 15-17.739v-100.185z" fill="#ff2323" data-original="#ff2323"></path><path d="m512 215.815h-30v40.185l15 17.739 15-17.739z" fill="#ff2323" data-original="#ff2323"></path><path d="m180.75 155.815v100.185l15 17.739 15-17.739v-100.185z" fill="#ff2323" data-original="#ff2323"></path><path d="m120.5 95.815v160.185l15 17.739 15-17.739v-160.185z" fill="#ff2323" data-original="#ff2323"></path><path d="m301.25 35.815v220.185l15 17.739 15-17.739v-220.185z" fill="#ff2323" data-original="#ff2323"></path><path d="m241 95.815v160.185l15 17.739 15-17.739v-160.185z" fill="#ff2323" data-original="#ff2323"></path><path d="m421.75 155.815v100.185l15 17.739 15-17.739v-100.185z" fill="#ff2323" data-original="#ff2323"></path><path d="m361.5 95.815v160.185l15 17.739 15-17.739v-160.185z" fill="#ff2323" data-original="#ff2323"></path></g><g fill="#bd003b"><path d="m0 256h30v40.185h-30z" fill="#bd003b" data-original="#bd003b"></path><path d="m60.25 256h30v100.185h-30z" fill="#bd003b" data-original="#bd003b"></path><path d="m482 256h30v40.185h-30z" fill="#bd003b" data-original="#bd003b"></path><path d="m180.75 256h30v100.185h-30z" fill="#bd003b" data-original="#bd003b"></path><path d="m120.5 256h30v160.185h-30z" fill="#bd003b" data-original="#bd003b"></path><path d="m301.25 256h30v220.185h-30z" fill="#bd003b" data-original="#bd003b"></path><path d="m241 256h30v160.185h-30z" fill="#bd003b" data-original="#bd003b"></path><path d="m421.75 256h30v100.185h-30z" fill="#bd003b" data-original="#bd003b"></path><path d="m361.5 256h30v160.185h-30z" fill="#bd003b" data-original="#bd003b"></path></g></g></g></svg>